<svg width="192" height="192" viewBox="0 0 192 192" fill="none" xmlns="http://www.w3.org/2000/svg">
<path d="M64.5923 0C72.6772 0.288749 72.6772 0.288749 74.9727 0.55527C75.254 0.587003 75.5352 0.618736 75.8249 0.65143C93.0233 2.69953 109.052 9.33627 122.834 19.7429C122.981 19.854 123.129 19.965 123.28 20.0794C125.211 21.5426 127.024 23.0924 128.787 24.7539C129.337 25.2694 129.893 25.7654 130.469 26.2519C132.692 28.1771 134.759 30.3294 136.654 32.5758C136.865 32.8141 137.076 33.0524 137.293 33.2979C141.307 37.8503 144.707 42.8873 147.759 48.1234C147.848 48.2736 147.937 48.4238 148.028 48.5785C154.421 59.4387 158.247 71.6901 159.852 84.1542C159.88 84.3617 159.907 84.5691 159.936 84.7828C161.704 98.4374 160.074 112.544 155.903 125.614C155.804 125.927 155.804 125.927 155.702 126.246C152.403 136.436 147.286 145.718 140.849 154.242C140.738 154.389 140.627 154.536 140.513 154.688C139.05 156.619 137.5 158.432 135.838 160.194C135.323 160.745 134.827 161.301 134.34 161.877C132.415 164.1 130.263 166.167 128.016 168.062C127.778 168.273 127.54 168.484 127.294 168.701C122.742 172.714 117.705 176.115 112.469 179.167C112.319 179.256 112.169 179.344 112.014 179.436C101.158 185.826 88.8997 189.665 76.438 191.26C76.119 191.301 76.119 191.301 75.7936 191.343C72.0617 191.812 68.3638 191.865 64.5923 192C64.5923 181.331 64.5923 170.663 64.5923 159.671C68.8271 159.59 73.062 159.508 77.4252 159.424C81.9394 158.645 81.9394 158.645 86.3095 157.45C86.7662 157.299 86.7662 157.299 87.2321 157.145C93.8092 154.874 100.121 150.724 104.572 145.357C104.744 145.157 104.917 144.957 105.094 144.751C109.792 139.199 112.844 132.496 114.196 125.368C114.258 125.08 114.258 125.08 114.322 124.786C114.879 121.816 114.766 118.799 114.764 115.789C114.765 115.172 114.766 114.554 114.767 113.936C114.769 112.648 114.769 111.359 114.768 110.071C114.767 108.583 114.769 107.096 114.775 105.609C114.78 104.172 114.78 102.734 114.779 101.297C114.78 100.688 114.781 100.079 114.783 99.4694C114.786 98.6201 114.785 97.7709 114.782 96.9216C114.784 96.6703 114.786 96.419 114.788 96.1601C114.78 94.4754 114.78 94.4754 113.95 93.0386C112.571 92.1195 111.134 91.9201 109.519 92.1594C108.495 92.3895 108.495 92.3895 107.533 92.7918C107.205 93.3812 107.205 93.3812 107.04 94.0257C106.958 94.27 106.877 94.5143 106.793 94.7661C106.767 95.4672 106.755 96.1626 106.754 96.8638C106.753 97.0782 106.751 97.2927 106.75 97.5136C106.747 97.9802 106.745 98.4467 106.744 98.9133C106.741 99.6558 106.736 100.398 106.731 101.141C106.715 103.252 106.702 105.364 106.694 107.476C106.689 108.768 106.68 110.06 106.669 111.352C106.665 111.841 106.663 112.33 106.662 112.819C106.656 116.687 106.329 120.43 105.25 124.165C105.199 124.346 105.147 124.527 105.094 124.713C104.517 126.656 103.728 128.483 102.844 130.303C102.771 130.458 102.697 130.612 102.622 130.771C98.4889 139.356 90.5756 146.27 81.6285 149.477C78.1181 150.654 74.3836 151.578 70.6694 151.558C70.4909 151.559 70.3125 151.56 70.1286 151.561C68.8189 151.558 68.8189 151.558 68.5409 151.28C68.5129 150.7 68.5004 150.127 68.4994 149.546C68.4986 149.372 68.4978 149.198 68.4969 149.019C68.4957 148.651 68.4951 148.283 68.4951 147.915C68.4946 147.35 68.4901 146.786 68.4854 146.222C68.4847 145.864 68.4842 145.507 68.484 145.15C68.4822 144.981 68.4804 144.811 68.4786 144.637C68.4844 143.44 68.4844 143.44 69.0344 142.889C69.5371 142.751 69.5371 142.751 70.1594 142.641C70.5052 142.575 70.5052 142.575 70.858 142.508C71.2304 142.437 71.2304 142.437 71.6103 142.365C79.6457 140.726 86.8969 135.835 91.5074 129.039C94.5197 124.467 96.4212 119.368 97.1819 113.948C97.2257 113.637 97.2695 113.326 97.3147 113.006C97.3478 112.769 97.3808 112.532 97.4149 112.288C97.1781 112.29 96.9414 112.292 96.6974 112.295C94.4609 112.315 92.2244 112.329 89.9878 112.339C88.838 112.344 87.6884 112.351 86.5387 112.362C85.4282 112.373 84.3178 112.379 83.2072 112.382C82.7845 112.383 82.3618 112.387 81.9392 112.392C77.8119 112.442 77.8119 112.442 76.1913 111.301C75.5682 110.58 75.4624 110.148 75.3275 109.203C75.4843 108.105 75.8288 107.786 76.6848 107.105C77.6076 106.488 78.5481 106.545 79.619 106.556C79.8141 106.556 80.0093 106.556 80.2103 106.556C80.8539 106.556 81.4975 106.56 82.1411 106.564C82.5879 106.565 83.0347 106.565 83.4814 106.566C84.6564 106.568 85.8313 106.572 87.0062 106.578C88.2055 106.583 89.4049 106.585 90.6042 106.588C92.9567 106.593 95.3092 106.602 97.6617 106.612C97.6617 104.169 97.6617 101.725 97.6617 99.2082C96.6539 99.2133 95.6461 99.2184 94.6077 99.2237C93.0755 99.2241 91.5434 99.2169 90.0113 99.2082C89.7623 99.207 89.5134 99.2057 89.2569 99.2044C87.6021 99.1951 85.9475 99.1792 84.2928 99.1568C83.7358 99.15 83.1789 99.1448 82.6219 99.1414C81.8301 99.1362 81.0386 99.1247 80.2468 99.1118C80.0088 99.1115 79.7708 99.1112 79.5256 99.1109C77.8094 99.0734 76.9725 98.7295 75.7285 97.527C75.3095 96.7121 75.3263 96.1633 75.4509 95.2596C76.151 94.1995 76.7098 93.6483 77.9188 93.2853C78.5787 93.2417 79.2119 93.2228 79.8712 93.2293C80.0639 93.2292 80.2567 93.2292 80.4553 93.2291C81.0895 93.2294 81.7238 93.2333 82.358 93.2372C82.7989 93.2381 83.2398 93.2388 83.6807 93.2393C84.839 93.2411 85.9973 93.246 87.1556 93.2515C88.3384 93.2565 89.5211 93.2588 90.7039 93.2612C93.0232 93.2665 95.3424 93.2752 97.6617 93.2853C97.6617 90.9236 97.6617 88.5619 97.6617 86.1285C97.0977 86.1324 96.5337 86.1363 95.9526 86.1403C94.083 86.1526 92.2135 86.1607 90.3439 86.1669C89.2111 86.1707 88.0783 86.176 86.9454 86.1844C85.8509 86.1925 84.7565 86.1969 83.662 86.1988C83.2457 86.2001 82.8294 86.2028 82.4132 86.2068C78.279 86.2451 78.279 86.2451 76.438 85.3882C75.6922 84.5877 75.4791 84.1087 75.3275 83.0283C75.4769 82.0014 75.6678 81.6392 76.438 80.946C77.7923 80.3455 78.9167 80.0987 80.4035 80.1216C80.5915 80.1215 80.7796 80.1214 80.9733 80.1213C81.5876 80.1218 82.2017 80.1275 82.8159 80.1334C83.2447 80.1347 83.6734 80.1358 84.1022 80.1365C85.2252 80.1393 86.3482 80.1466 87.4712 80.1548C88.6193 80.1624 89.7674 80.1658 90.9155 80.1695C93.1643 80.1774 95.413 80.1904 97.6617 80.2057C97.6617 77.8439 97.6617 75.4822 97.6617 73.0488C97.0639 73.0465 96.4661 73.0442 95.8502 73.0419C93.8732 73.0335 91.8963 73.0198 89.9194 73.0035C88.721 72.9937 87.5226 72.9858 86.3242 72.982C85.1672 72.9782 84.0104 72.9697 82.8535 72.9579C82.4125 72.9543 81.9715 72.9523 81.5305 72.9521C80.9119 72.9515 80.2936 72.9449 79.6751 72.9368C79.4935 72.938 79.3119 72.9393 79.1248 72.9405C77.8711 72.9153 77.1597 72.5995 76.1913 71.8149C75.6605 71.1427 75.4711 70.6994 75.3275 69.856C75.498 68.8116 75.9359 68.3518 76.6848 67.6195C77.7262 67.0668 78.7187 67.0586 79.8712 67.0699C80.0639 67.0699 80.2567 67.0698 80.4553 67.0697C81.0895 67.0701 81.7238 67.0739 82.358 67.0778C82.7989 67.0787 83.2398 67.0794 83.6807 67.0799C84.839 67.0818 85.9973 67.0866 87.1556 67.0921C88.3384 67.0971 89.5211 67.0994 90.7039 67.1019C93.0232 67.1072 95.3424 67.1156 97.6617 67.126C97.5135 66.2689 97.3622 65.4124 97.2105 64.5559C97.1691 64.3163 97.1277 64.0768 97.0851 63.83C96.0362 57.948 93.363 52.677 89.5177 48.1234C89.2715 47.8228 89.2715 47.8228 89.0203 47.5161C86.6889 44.7788 83.7509 42.7235 80.6334 40.9666C80.3681 40.8171 80.1028 40.6675 79.8294 40.5135C75.0155 37.9557 69.9874 37.1309 64.5923 36.7712C64.5923 41.0061 64.5923 45.2409 64.5923 49.6041C63.4928 50.0928 63.4928 50.0928 62.3712 50.5913C61.1758 52.0147 61.2394 53.4316 61.2529 55.2339C61.252 55.5122 61.2511 55.7905 61.2501 56.0773C61.2494 56.6638 61.2512 57.2504 61.2554 57.837C61.2606 58.7323 61.2554 59.6272 61.2491 60.5225C61.2497 61.0938 61.251 61.6652 61.2529 62.2365C61.251 62.5029 61.249 62.7692 61.2469 63.0437C61.2663 64.6109 61.3456 65.6579 62.3712 66.8792C63.1042 67.2049 63.8371 67.5307 64.5923 67.8663C64.5923 71.6125 64.5923 75.3588 64.5923 79.2185C53.5165 79.2185 42.4407 79.2185 31.0293 79.2185C31.0293 65.2037 31.0293 65.2037 32.0781 61.527C32.1318 61.3331 32.1855 61.1392 32.2409 60.9395C33.5602 56.3225 35.6851 51.9422 38.9265 48.3702C39.1371 48.1275 39.3477 47.8847 39.5646 47.6346C45.0518 41.378 52.853 37.3785 61.1373 36.5244C62.2774 36.5244 63.4176 36.5244 64.5923 36.5244C64.5923 24.4714 64.5923 12.4183 64.5923 0Z" fill="#FFF7DE"/>
<path d="M31.0294 84.4011C42.1052 84.4011 53.181 84.4011 64.5924 84.4011C64.5924 103.865 64.5924 123.329 64.5924 143.383C55.3932 142.842 47.898 140.129 41.1476 133.758C40.9657 133.592 40.7837 133.426 40.5962 133.255C34.5864 127.565 31.2742 119.058 31.0072 110.867C30.9994 110.161 30.9988 109.454 31.0014 108.748C31.0013 108.478 31.0013 108.209 31.0013 107.931C31.0015 107.069 31.0033 106.207 31.0053 105.344C31.0056 104.808 31.0059 104.272 31.006 103.735C31.0073 101.759 31.0108 99.7816 31.014 97.8047C31.0216 91.1699 31.0216 91.1699 31.0294 84.4011Z" fill="#FFF7DE"/>
</svg>
